<?xml version="1.0" encoding="UTF-8" standalone="no"?>
<svg
   width="45"
   height="35"
   viewBox="0 0 45 35"
   version="1.1"
   id="svg55"
   sodipodi:docname="side-menu-button.svg"
   inkscape:version="1.1-alpha (d4b03b3, 2021-03-04)"
   xmlns:inkscape="http://www.inkscape.org/namespaces/inkscape"
   xmlns:sodipodi="http://sodipodi.sourceforge.net/DTD/sodipodi-0.dtd"
   xmlns="http://www.w3.org/2000/svg"
   xmlns:svg="http://www.w3.org/2000/svg">
  <defs
     id="defs59" />
  <sodipodi:namedview
     id="namedview57"
     pagecolor="#ffffff"
     bordercolor="#666666"
     borderopacity="1.0"
     objecttolerance="10.0"
     gridtolerance="10.0"
     guidetolerance="10.0"
     inkscape:pageshadow="2"
     inkscape:pageopacity="0.0"
     inkscape:pagecheckerboard="0"
     showgrid="false"
     inkscape:zoom="5.5049942"
     inkscape:cx="17.620364"
     inkscape:cy="33.969155"
     inkscape:window-width="1312"
     inkscape:window-height="912"
     inkscape:window-x="0"
     inkscape:window-y="25"
     inkscape:window-maximized="0"
     inkscape:current-layer="svg55" />
  <path
     id="side-menu-button-bottom-line"
     style="color:#000000;isolation:isolate;fill:#000000;stroke-linecap:round;-inkscape-stroke:none"
     d="M 2.5 0 A 2.5 2.5 0 0 0 0 2.5 A 2.5 2.5 0 0 0 2.5 5 L 42.5 5 A 2.5 2.5 0 0 0 45 2.5 A 2.5 2.5 0 0 0 42.5 0 L 2.5 0 z M 2.5 15 A 2.5 2.5 0 0 0 0 17.5 A 2.5 2.5 0 0 0 2.5 20 L 42.5 20 A 2.5 2.5 0 0 0 45 17.5 A 2.5 2.5 0 0 0 42.5 15 L 2.5 15 z M 2.5 30 A 2.5 2.5 0 0 0 0 32.5 A 2.5 2.5 0 0 0 2.5 35 L 42.5 35 A 2.5 2.5 0 0 0 45 32.5 A 2.5 2.5 0 0 0 42.5 30 L 2.5 30 z " />
</svg>
